<svg id="Logo_Facebook" data-name="Logo Facebook" xmlns="http://www.w3.org/2000/svg" width="18" height="18" viewBox="0 0 18 18">
  <path id="Path_302" data-name="Path 302" d="M18,9A9,9,0,1,0,7.594,17.891V11.6H5.309V9H7.594V7.017a3.176,3.176,0,0,1,3.4-3.5,13.842,13.842,0,0,1,2.014.176V5.906H11.872a1.3,1.3,0,0,0-1.466,1.406V9h2.5l-.4,2.6h-2.1v6.289A9,9,0,0,0,18,9Z" fill="#1877f2"/>
  <path id="Path_303" data-name="Path 303" d="M309.195,208.086l.4-2.6h-2.5V203.8a1.3,1.3,0,0,1,1.466-1.406H309.7v-2.215a13.842,13.842,0,0,0-2.014-.176,3.176,3.176,0,0,0-3.4,3.5v1.983H302v2.6h2.285v6.289a9.128,9.128,0,0,0,2.813,0v-6.289Z" transform="translate(-296.691 -196.484)" fill="#fff"/>
</svg>
