<svg id="Logo_google" xmlns="http://www.w3.org/2000/svg" width="18.076" height="18.076" viewBox="0 0 18.076 18.076">
  <path id="Path_298" data-name="Path 298" d="M17.9,7.276h-.723V7.23H9.038v3.615h5.107a5.381,5.381,0,0,1-5.107,3.615,5.423,5.423,0,0,1,0-10.846,5.662,5.662,0,0,1,3.615,1.356L15.229,2.4A9.425,9.425,0,0,0,9.038,0a9.038,9.038,0,1,0,9.038,9.038A7.783,7.783,0,0,0,17.9,7.276Z" fill="#ffc107"/>
  <path id="Path_299" data-name="Path 299" d="M2.3,4.835,5.283,7A5.432,5.432,0,0,1,10.3,3.615a5.662,5.662,0,0,1,3.615,1.356L16.49,2.4A9.425,9.425,0,0,0,10.3,0,9.018,9.018,0,0,0,2.3,4.835Z" transform="translate(-1.261)" fill="#ff3d00"/>
  <path id="Path_300" data-name="Path 300" d="M10.244,31.285a8.95,8.95,0,0,0,6.056-2.35l-2.8-2.35A5.433,5.433,0,0,1,5.137,24.1L2.2,26.36A8.981,8.981,0,0,0,10.244,31.285Z" transform="translate(-1.206 -13.209)" fill="#4caf50"/>
  <path id="Path_301" data-name="Path 301" d="M28.857,16.045h-.723V16H20v3.615h5.107a5.45,5.45,0,0,1-1.853,2.531h0l2.8,2.35a8.661,8.661,0,0,0,2.983-6.688A7.783,7.783,0,0,0,28.857,16.045Z" transform="translate(-10.962 -8.77)" fill="#1976d2"/>
</svg>
