<svg xmlns="http://www.w3.org/2000/svg" width="18.241" height="15.176" viewBox="0 0 18.241 15.176">
    <defs>
        <style>.a {
            fill: currentColor;
            stroke: #fff;
            stroke-width: 0.3px;
        }</style>
    </defs>
    <path class="a"
          d="M16.407,16.99l-6.4-6.4a1.026,1.026,0,0,0-1.417,0l-6.4,6.4a1,1,0,0,0,0,1.417l6.4,6.4a1,1,0,0,0,1.417,0l6.4-6.4A1,1,0,0,0,16.407,16.99Zm-.591.828-6.4,6.4a.143.143,0,0,1-.239,0l-6.4-6.4a.17.17,0,0,1,0-.239l6.4-6.4a.171.171,0,0,1,.239,0l6.4,6.4a.168.168,0,0,1,0,.239Zm3.724.589-6.4,6.4a1,1,0,0,1-1.417,0,.417.417,0,0,1,.589-.589.17.17,0,0,0,.239,0l6.4-6.4a.17.17,0,0,0,0-.239l-6.4-6.4a.17.17,0,0,0-.239,0,.417.417,0,0,1-.589-.589,1,1,0,0,1,1.417,0l6.4,6.4a1,1,0,0,1,0,1.417Zm-7.293-.741a.418.418,0,0,1-.417.417H9.712V20.2a.417.417,0,1,1-.835,0V18.085H6.763a.417.417,0,1,1,0-.835H8.88V15.135a.417.417,0,0,1,.835,0v2.117H11.83a.416.416,0,0,1,.417.415Z"
          transform="translate(-1.742 -10.075)"/>
</svg>
