<svg xmlns="http://www.w3.org/2000/svg" width="236" height="90.957" viewBox="0 0 236 90.957"><defs><style>.a,.b{fill:#5e9433;}.a{opacity:0.146;}.b{font-size:47px;font-family:FontAwesome5Pro-Solid, 'Font Awesome 5 Pro';}</style></defs><g transform="translate(81 14)"><path class="a" d="M69.659,14.962c-7.67-.314-15.026-3.144-22.005-6.161S33.759,2.325,26.214.691C21.373-.378,15.9-.5,12.005,2.451c-3.709,2.829-4.967,7.67-5.6,12.2-.5,3.4-.754,6.979.566,10.122.943,2.2,2.578,4.087,3.709,6.161,3.961,7.356,1.195,16.472-3.144,23.64-2.012,3.4-4.338,6.6-5.91,10.185S-.632,72.49.689,76.136c1.383,3.647,4.59,6.35,8.048,8.3,7.1,3.9,15.466,5.03,23.577,5.658,4.841.377,9.619.629,14.586.754,13.14.314,26.406-.126,39.609-.566,6.664-.251,13.392-.44,19.993-1.635,3.647-.629,7.419-1.7,10.059-4.212a10.5,10.5,0,0,0,1.949-12.511c-3.772-6.664-14.272-8.3-16.912-15.466-1.446-3.961.063-8.3,2.138-11.946,4.527-7.859,12.134-14.712,12.574-23.64a16.743,16.743,0,0,0-9.053-15.215c-5.91-3.081-14.146-2.641-18.547,2.389C84.371,13.265,76.449,15.277,69.659,14.962Z" transform="translate(-22.992 -13.997)"/><text class="b" transform="translate(-81 12)"><tspan x="94.5" y="41"></tspan></text></g></svg>