<svg xmlns="http://www.w3.org/2000/svg" width="236" height="144.349" viewBox="0 0 236 144.349"><defs><style>.a{fill:#ad0960;opacity:0.146;}.b{fill:#b11979;font-size:47px;font-family:FontAwesome5Pro-Solid, 'Font Awesome 5 Pro';}</style></defs><g transform="translate(82 40)"><path class="a" d="M41.2,2.728C26.883,28.55,8.9,18.253,2.79,26.821-1.272,32.21.216,39.772.5,46.288c.483,7.562.925,14.842,1.408,22.363.4,9.13,1.006,19.387,8.969,24.937,14,10.015,46.738,16.169,58.4,13.112,24.133-8.889-7.843-32.58,2.856-45.692,7.32-9.895,28.2-5.953,30.367-20.272.764-12.871-16.612-18.944-24.053-25.018C69.84,10.128,48.4-6.483,41.2,2.728Z" transform="translate(18.744 -40) rotate(30)"/><text class="b" transform="translate(-82 12)"><tspan x="95.234" y="41"></tspan></text></g></svg>