<svg xmlns="http://www.w3.org/2000/svg" width="236" height="100.287" viewBox="0 0 236 100.287"><defs><style>.a,.b{fill:#8b82b9;}.a{opacity:0.146;}.b{font-size:47px;font-family:FontAwesome5Pro-Solid, 'Font Awesome 5 Pro';}</style></defs><g transform="translate(87 17)"><path class="a" d="M81.573,11.249c10.505-2.822,12.857,8.741,9.408,15.915-4.939,11.054-7.6,16.659-1.49,25.832,7.369,10.27,18.58,19.678,16.385,33.358-6.389,26.929-36.141,4.939-49.077,8.78-8.9,1.568-16.973,6.585-26.145,4.861C6.626,96.624-8.27,55.426,5.1,40.491c7.134-9.251,18.894-4.665,25.518-10.819,4.429-4.625,3.253-12.426,7.173-17.6a25.24,25.24,0,0,1,41.629-2C79.417,10.034,80.044,11.877,81.573,11.249Z" transform="translate(-22.066 -17.063)"/><text class="b" transform="translate(-87 14)"><tspan x="100.375" y="41"></tspan></text></g></svg>