<svg xmlns="http://www.w3.org/2000/svg" width="236" height="97.679" viewBox="0 0 236 97.679"><defs><style>.a,.b{fill:#c51315;}.a{opacity:0.146;}.b{font-size:47px;font-family:FontAwesome5Pro-Solid, 'Font Awesome 5 Pro';}</style></defs><g transform="translate(81 14)"><path class="a" d="M52.829,25.348c-6.384,2.3-13.343,2.426-20.11,2.234s-13.534-.7-20.238.511c-4.277.766-8.874,2.49-11.108,6.193C-.734,37.861-.1,42.2.862,46.161c.7,2.937,1.66,6,3.83,8.172C6.161,55.8,8.14,56.822,9.8,58.163c5.682,4.724,6.448,13.087,5.3,20.429-.511,3.447-1.4,6.831-1.468,10.342-.064,3.447.7,7.086,3.064,9.64,2.3,2.49,5.873,3.7,9.385,4.086,7.086.83,14.3-1.021,21.2-3.256,15.258-4.852,29.878-11.428,44.5-17.939a126.669,126.669,0,0,0,15.833-7.98c2.745-1.724,5.554-3.83,6.895-6.767A9.36,9.36,0,0,0,111.946,55.8c-5.3-4.214-14.428-2.043-19.025-7.023-2.49-2.745-2.745-6.831-2.234-10.534,1.085-7.916,5.043-16.088,2.426-23.557A14.905,14.905,0,0,0,80.664,5.238C74.79,4.728,68.151,7.792,66.3,13.346,64.257,19.028,58.447,23.305,52.829,25.348Z" transform="translate(-20.968 -19.183)"/><text class="b" transform="translate(-81 15)"><tspan x="97.438" y="41"></tspan></text></g></svg>