<svg xmlns="http://www.w3.org/2000/svg" width="236" height="93.425" viewBox="0 0 236 93.425"><defs><style>.a,.b{fill:#5e9433;}.a{opacity:0.146;}.b{font-size:47px;font-family:FontAwesome5Pro-Solid, 'Font Awesome 5 Pro';}</style></defs><g transform="translate(88 16)"><path class="a" d="M41.168,13.082C30.909-8.746,5.407-.524,4.352,18.5c-.546,8.113,2.474,16.517,1.892,24.811C5.7,51.9.277,59.467.022,68.125c-.364,13.533,10.623,25.248,23.9,25.284a24.912,24.912,0,0,0,16.844-5.966c3.092-2.692,5.457-6.039,8.295-9.095,12.224-14.77,36.489-4,46.639-20.264C102,47.316,90.827,40,87.225,30.909c-2.583-5.748.946-12.005.546-17.935C87.225,7.007,82.132,2.5,76.2.786c-12.042-3.42-22.337,4.839-31.1,11.9C45.1,12.646,42.805,16.684,41.168,13.082Z" transform="translate(-19.014 -15.988)"/><text class="b" transform="translate(-88 11)"><tspan x="94.5" y="41"></tspan></text></g></svg>