<svg xmlns="http://www.w3.org/2000/svg" width="236" height="102.524" viewBox="0 0 236 102.524"><defs><style>.a{fill:#d50380;opacity:0.146;}.b{fill:#e4e7e8;font-size:47px;font-family:FontAwesome5Pro-Solid, 'Font Awesome 5 Pro';}</style></defs><g transform="translate(73 20)"><path class="a" d="M41.2,104.761C26.883,78.938,8.9,89.235,2.79,80.668-1.272,75.278.216,67.716.5,61.2c.483-7.562.925-14.842,1.408-22.363.4-9.13,1.006-19.387,8.969-24.937C24.872,3.884,57.612-2.27,69.276.787c24.133,8.889-7.843,32.58,2.856,45.692,7.32,9.895,28.2,5.953,30.367,20.272.764,12.871-16.612,18.944-24.053,25.018C69.84,97.36,48.4,113.971,41.2,104.761Z" transform="translate(-0.493 82.524) rotate(-90)"/><text class="b" transform="translate(-73 12)"><tspan x="101.844" y="41"></tspan></text></g></svg>