<svg xmlns="http://www.w3.org/2000/svg" width="236" height="100.614" viewBox="0 0 236 100.614"><defs><style>.a{fill:#fbe400;opacity:0.146;}.b{fill:#edcc72;font-size:47px;font-family:FontAwesome5Pro-Solid, 'Font Awesome 5 Pro';}</style></defs><g transform="translate(74 18)"><path class="a" d="M95.193,6.727C91.71-1.16,79.419-1.48,71.332,2.523c-6.486,3.443-11.57,11.13-19.457,10.089-9.608-.761-18.416-8.007-28.464-7.927-14.492-1-27.223,11.45-22.379,25.222C4.394,37.594,13.8,42.8,14.083,51.646c1.241,13.932-13.211,31.147-1.4,43.277,20.778,16.734,28.625-8.567,38.233-10.449,8.407-2.4,17.975,4.724,26.383.921,9.488-4,14.132-14.853,18.216-24.661C102.679,42.758,103.48,25.783,95.193,6.727Z" transform="translate(-6.984 -18.002)"/><text class="b" transform="translate(-74 13)"><tspan x="94.5" y="41"></tspan></text></g></svg>