<svg xmlns="http://www.w3.org/2000/svg" width="236" height="97.679" viewBox="0 0 236 97.679"><defs><style>.a,.b{fill:#3ea3dc;}.a{opacity:0.146;}.b{font-size:47px;font-family:FontAwesome5Pro-Solid, 'Font Awesome 5 Pro';}</style></defs><g transform="translate(80 21)"><path class="a" d="M62.425,82.7c6.384-2.3,13.343-2.426,20.11-2.234s13.534.7,20.238-.511c4.277-.766,8.874-2.49,11.108-6.193,2.107-3.575,1.468-7.916.511-11.874-.7-2.937-1.66-6-3.83-8.172-1.468-1.468-3.447-2.49-5.107-3.83-5.682-4.724-6.448-13.087-5.3-20.429.511-3.447,1.4-6.831,1.468-10.342.064-3.447-.7-7.086-3.064-9.64-2.3-2.49-5.873-3.7-9.385-4.086-7.086-.83-14.3,1.021-21.2,3.256C52.721,13.493,38.1,20.069,23.482,26.581a126.668,126.668,0,0,0-15.833,7.98C4.9,36.285,2.1,38.391.755,41.328A9.36,9.36,0,0,0,3.308,52.245c5.3,4.214,14.428,2.043,19.025,7.023,2.49,2.745,2.745,6.831,2.234,10.534-1.085,7.916-5.043,16.088-2.426,23.557a14.905,14.905,0,0,0,12.449,9.448c5.873.511,12.513-2.554,14.364-8.108C51,89.017,56.807,84.74,62.425,82.7Z" transform="translate(-19.968 -26.183)"/><text class="b" transform="translate(-80 8)"><tspan x="94.5" y="41"></tspan></text></g></svg>