<svg xmlns="http://www.w3.org/2000/svg" width="19.542" height="19.542" viewBox="0 0 19.542 19.542">
    <defs>
        <style>.a {
            fill: #6e7070;
            opacity: 0.3;
        }</style>
    </defs>
    <path class="a"
          d="M29.771,40.307A9.771,9.771,0,1,0,20,30.536,9.8,9.8,0,0,0,29.771,40.307Zm-4.6-13.46a.671.671,0,1,1,.95-.95l3.656,3.691L33.462,25.9a.671.671,0,1,1,.95.95L30.72,30.5l3.691,3.691a.7.7,0,0,1,0,.95.581.581,0,0,1-.457.176.666.666,0,0,1-.457-.176l-3.724-3.691-3.691,3.691a.581.581,0,0,1-.457.176.666.666,0,0,1-.457-.176.7.7,0,0,1,0-.95L28.857,30.5Z"
          transform="translate(-20 -20.765)"/>
</svg>
